<svg width="9" height="16" viewBox="0 0 9 16" fill="none" xmlns="http://www.w3.org/2000/svg">
<path d="M7.32568 3.63634V11.9999C7.32568 13.6072 6.02387 14.909 4.41661 14.909C2.80934 14.909 1.50753 13.6072 1.50753 11.9999V2.90908C1.50753 1.90544 2.32207 1.0909 3.3257 1.0909C4.32933 1.0909 5.14387 1.90544 5.14387 2.90908V10.5454C5.14387 10.9454 4.8166 11.2727 4.41661 11.2727C4.01661 11.2727 3.68934 10.9454 3.68934 10.5454V3.63634H2.59843V10.5454C2.59843 11.549 3.41297 12.3636 4.41661 12.3636C5.42024 12.3636 6.23478 11.549 6.23478 10.5454V2.90908C6.23478 1.30181 4.93297 0 3.3257 0C1.71844 0 0.416626 1.30181 0.416626 2.90908V11.9999C0.416626 14.2108 2.20571 15.9999 4.41661 15.9999C6.6275 15.9999 8.41658 14.2108 8.41658 11.9999V3.63634H7.32568Z" fill="#C2CFE0"/>
</svg>
