<svg width="32" height="32" viewBox="0 0 32 32" fill="none" xmlns="http://www.w3.org/2000/svg">
<circle cx="16" cy="16" r="16" fill="#C2CFE0"/>
<path d="M21.34 18.2533C20.52 18.2533 19.7267 18.12 18.9867 17.88C18.7533 17.8 18.4933 17.86 18.3133 18.04L17.2667 19.3533C15.38 18.4533 13.6133 16.7533 12.6733 14.8L13.9733 13.6933C14.1533 13.5067 14.2067 13.2467 14.1333 13.0133C13.8867 12.2733 13.76 11.48 13.76 10.66C13.76 10.3 13.46 10 13.1 10H10.7933C10.4333 10 10 10.16 10 10.66C10 16.8533 15.1533 22 21.34 22C21.8133 22 22 21.58 22 21.2133V18.9133C22 18.5533 21.7 18.2533 21.34 18.2533Z" fill="white"/>
</svg>
