<svg width="50" height="50" viewBox="0 0 50 50" fill="none" xmlns="http://www.w3.org/2000/svg">
<g clip-path="url(#clip0_118_56)">
<path d="M47.2371 0.000976562H2.75957C1.23654 0.000976562 0 1.23507 0 2.7606V47.2389C0 48.7644 1.23654 50.0002 2.75957 50.0002H26.705V30.6375H20.1897V23.0906H26.705V17.5252C26.705 11.0683 30.6476 7.55041 36.4088 7.55041C39.1708 7.55041 41.5393 7.75706 42.23 7.84679V14.596L38.2339 14.5977C35.1014 14.5977 34.4972 16.087 34.4972 18.2711V23.0881H41.9707L40.9935 30.6342H34.4963V49.9977H47.2363C48.761 49.9977 49.9983 48.7603 49.9983 47.2389V2.75895C49.9975 1.23507 48.7618 0.000976562 47.2371 0.000976562Z" fill="#3B5998"/>
</g>
<defs>
<clipPath id="clip0_118_56">
<rect width="50" height="50" fill="white"/>
</clipPath>
</defs>
</svg>
