<svg width="160" height="43" viewBox="0 0 160 43" fill="none" xmlns="http://www.w3.org/2000/svg">
<g clip-path="url(#clip0_118_112)">
<path d="M30.4919 20.3196C30.806 20.2817 31.1072 20.2809 31.3834 20.3196C31.5434 19.9524 31.5709 19.3203 31.4272 18.6323C31.213 17.6089 30.9239 16.9897 30.3259 17.086C29.7278 17.1823 29.7055 17.9236 29.9197 18.947C30.0402 19.5224 30.2544 20.0151 30.4928 20.3196H30.4919Z" fill="black"/>
<path d="M25.3559 21.1246C25.7844 21.3114 26.0469 21.4355 26.1501 21.3276C26.2164 21.26 26.1966 21.1315 26.0942 20.9653C25.8834 20.6219 25.448 20.2741 24.9876 20.078C24.0446 19.6737 22.9199 19.8082 22.0526 20.4292C21.7661 20.6382 21.495 20.9276 21.5337 21.1032C21.5466 21.1598 21.5888 21.2026 21.6895 21.2171C21.9252 21.2437 22.7504 20.8292 23.7012 20.7709C24.3724 20.7298 24.9283 20.9388 25.3559 21.1255V21.1246Z" fill="black"/>
<path d="M24.4947 21.6201C23.9372 21.7075 23.63 21.8908 23.4321 22.0612C23.2634 22.2077 23.1593 22.3695 23.1602 22.4834L23.2032 22.5845L23.2953 22.6196C23.4209 22.6196 23.7031 22.5074 23.7031 22.5074C24.4792 22.2308 24.9912 22.2642 25.498 22.3216C25.7785 22.3533 25.911 22.3704 25.9721 22.2745C25.9902 22.2471 26.0126 22.188 25.9567 22.0972C25.8259 21.8865 25.2631 21.5302 24.4956 21.621L24.4947 21.6201Z" fill="black"/>
<path d="M28.7581 23.4178C29.1367 23.6028 29.5532 23.53 29.6891 23.2551C29.8251 22.9802 29.628 22.6076 29.2494 22.4226C28.8708 22.2376 28.4544 22.3104 28.3184 22.5853C28.1825 22.8603 28.3795 23.2328 28.7581 23.4178Z" fill="black"/>
<path d="M31.189 21.2979C30.8832 21.2928 30.6288 21.6285 30.622 22.049C30.6151 22.4687 30.8575 22.813 31.1633 22.8182C31.469 22.8233 31.7234 22.4876 31.7302 22.0679C31.7371 21.6482 31.4947 21.3039 31.189 21.2979Z" fill="black"/>
<path d="M10.5346 28.898C10.4581 28.8025 10.3324 28.8317 10.2111 28.8593C10.1259 28.879 10.0295 28.9014 9.92457 28.8997C9.69827 28.8954 9.50638 28.7991 9.39883 28.6339C9.25857 28.4189 9.26718 28.0982 9.4212 27.7309L9.49348 27.5667C9.74043 27.0137 10.1526 26.0875 9.68966 25.206C9.34117 24.5421 8.77155 24.1284 8.08748 24.0416C7.43095 23.9581 6.75463 24.2015 6.32354 24.6771C5.64291 25.427 5.53707 26.4478 5.66872 26.809C5.71691 26.9415 5.79263 26.9776 5.84684 26.9853C5.963 27.0008 6.13337 26.9165 6.24093 26.6284L6.27191 26.5347C6.32009 26.3825 6.40872 26.0987 6.55414 25.8708C6.72967 25.5964 7.0033 25.4072 7.32511 25.3384C7.65209 25.2688 7.98681 25.3307 8.26646 25.5139C8.74315 25.8261 8.92643 26.4091 8.72336 26.9664C8.61839 27.2545 8.44716 27.8049 8.48502 28.2573C8.5616 29.1732 9.1252 29.5412 9.63115 29.5799C10.1233 29.5989 10.4675 29.3219 10.5544 29.1198C10.6061 29.0003 10.5622 28.9281 10.5346 28.8962V28.898Z" fill="black"/>
<path d="M38.952 27.2232C38.9331 27.157 38.8109 26.7107 38.6431 26.1732L38.3015 25.2573C38.9744 24.2502 38.9864 23.3498 38.8969 22.8398C38.8014 22.2077 38.5381 21.6685 38.0072 21.1121C37.4763 20.5548 36.3913 19.9846 34.8657 19.5572L34.0654 19.3353C34.0611 19.3026 34.0233 17.4493 33.9889 16.6538C33.9639 16.0785 33.914 15.1815 33.6352 14.2966C33.3031 13.0995 32.7249 12.0529 32.0021 11.3829C33.9958 9.31807 35.24 7.04252 35.2365 5.09118C35.2305 1.33815 30.6193 0.202097 24.936 2.55419L23.7322 3.06503C23.727 3.05987 21.5552 0.930515 21.5225 0.902135C15.0432 -4.74633 -5.2163 17.7598 1.26124 23.2259L2.6767 24.4248C2.30929 25.3751 2.16559 26.4647 2.28347 27.636C2.43491 29.1401 3.21105 30.5824 4.4699 31.6969C5.66422 32.7547 7.23542 33.4247 8.7593 33.4229C11.2796 39.2288 17.0387 42.79 23.7915 42.9904C31.0349 43.2054 37.1158 39.8084 39.6636 33.7059C39.8305 33.2776 40.5378 31.3478 40.5378 29.6441C40.5378 27.9319 39.5698 27.2224 38.9529 27.2224L38.952 27.2232ZM9.31602 31.7924C9.09574 31.8302 8.87116 31.8448 8.64486 31.8397C6.45671 31.7812 4.09388 29.8127 3.85898 27.4778C3.59912 24.8978 4.9182 22.9112 7.25435 22.4408C7.53314 22.3849 7.8713 22.3522 8.23528 22.3711C9.54404 22.4425 11.4723 23.447 11.9129 26.2961C12.3027 28.8194 11.6831 31.389 9.31602 31.7924ZM6.87317 20.8971C5.41899 21.18 4.13776 22.003 3.35389 23.1408C2.88579 22.7504 2.01243 21.9944 1.8584 21.7003C0.607295 19.3259 3.22396 14.7094 5.05157 12.1027C9.56899 5.65964 16.6437 0.783456 19.9195 1.66753C20.4521 1.81803 22.2152 3.86139 22.2152 3.86139C22.2152 3.86139 18.9411 5.67684 15.9054 8.20781C11.8148 11.3563 8.72402 15.9315 6.87317 20.8971ZM29.8371 30.8275C29.8845 30.8077 29.9172 30.7526 29.912 30.6993C29.9051 30.6331 29.8458 30.5849 29.7795 30.5918C29.7795 30.5918 26.3523 31.0992 23.1144 29.9141C23.4672 28.7686 24.4051 29.1823 25.8222 29.2967C28.3769 29.4489 30.6666 29.0756 32.3583 28.5906C33.8245 28.1701 35.7502 27.341 37.2466 26.1611C37.7508 27.2688 37.9289 28.4874 37.9289 28.4874C37.9289 28.4874 38.3196 28.4178 38.6457 28.6181C38.9537 28.8082 39.18 29.2021 39.026 30.222C38.7111 32.1269 37.9014 33.6723 36.5401 35.0948C35.7115 35.9866 34.7056 36.7614 33.5543 37.3247C32.9434 37.6455 32.292 37.9233 31.6045 38.1478C26.4727 39.823 21.2188 37.9809 19.5254 34.0258C19.3903 33.7282 19.2759 33.4169 19.1855 33.0918C18.4636 30.4852 19.0762 27.3582 20.9916 25.3897V25.3888C21.1095 25.2633 21.23 25.1162 21.23 24.9305C21.23 24.7748 21.131 24.6114 21.0458 24.4953C20.3755 23.5244 18.0549 21.8689 18.5212 18.6654C18.8559 16.364 20.8694 14.7438 22.7469 14.8401L23.2228 14.8676C24.0359 14.9158 24.7458 15.0199 25.4161 15.0482C26.5373 15.0964 27.5449 14.9339 28.7383 13.9397C29.141 13.6043 29.4637 13.3136 30.0101 13.2207C30.0677 13.2113 30.2106 13.1597 30.4954 13.1734C30.7871 13.1889 31.0642 13.2689 31.3137 13.4349C32.2705 14.0713 32.4065 15.6133 32.4564 16.7407C32.4848 17.3848 32.5622 18.9423 32.5889 19.3886C32.65 20.4112 32.9185 20.5548 33.4623 20.7345C33.7686 20.8352 34.0525 20.91 34.4707 21.0278C35.7373 21.383 36.4885 21.7442 36.9626 22.2069C37.2449 22.4967 37.3765 22.8037 37.4169 23.0978C37.5667 24.1874 36.5711 25.5325 33.9355 26.7554C31.0547 28.0918 27.5604 28.4298 25.1459 28.1615L24.3001 28.066C22.3683 27.8063 21.267 30.3011 22.426 32.01C23.1729 33.1116 25.2079 33.828 27.2437 33.8289C31.9117 33.8297 35.4998 31.8371 36.8344 30.1162L36.9411 29.964C37.0065 29.8651 36.9523 29.8109 36.8705 29.8668C35.7803 30.6125 30.9368 33.5734 25.756 32.6825C25.756 32.6825 25.1261 32.5793 24.5522 32.3557C24.0953 32.1785 23.1402 31.7391 23.024 30.7587C27.205 32.0512 29.8371 30.8292 29.8371 30.8292V30.8275ZM23.2142 30.0457L23.215 30.0466L23.2159 30.0483L23.2142 30.0449V30.0457ZM15.2162 12.0752C16.8218 10.2202 18.7992 8.60771 20.57 7.70214C20.6311 7.67118 20.6965 7.7374 20.6629 7.7976C20.5227 8.05215 20.2516 8.59739 20.1656 9.01019C20.1518 9.07469 20.2224 9.12285 20.2766 9.08587C21.378 8.33509 23.2951 7.531 24.9764 7.4278C25.0487 7.4235 25.0831 7.51552 25.0263 7.56024C24.7708 7.75632 24.4911 8.02721 24.2872 8.30155C24.2528 8.34799 24.2855 8.41507 24.3431 8.41593C25.5237 8.42453 27.1878 8.83733 28.272 9.44535C28.3451 9.48663 28.2935 9.62853 28.2109 9.60961C26.57 9.23379 23.8836 8.94827 21.0931 9.62853C18.6021 10.2357 16.7005 11.1731 15.3134 12.1819C15.2437 12.2326 15.1594 12.1406 15.2162 12.0744V12.0752Z" fill="black"/>
<path d="M154.867 16.4363C152.467 16.4363 151.367 18.2354 150.889 19.2597C150.573 19.9365 150.588 20.1351 150.358 20.1351C150.024 20.1351 150.301 19.5916 150.451 18.9518C150.747 17.6927 150.521 16.7313 150.521 16.7313H147.1V33.1391H151.77V27.937C152.322 28.8736 153.346 29.8746 154.924 29.8746C158.301 29.8746 160 27.0185 160 23.1606C160 18.7875 157.966 16.4346 154.867 16.4346L154.867 16.4363ZM153.585 26.8293C152.514 26.8293 151.727 25.4723 151.727 23.5803C151.727 21.7433 152.536 20.3321 153.548 20.3321C154.848 20.3321 155.402 21.5232 155.402 23.5803C155.402 25.7199 154.892 26.8293 153.585 26.8293Z" fill="black"/>
<path d="M62.0467 16.4363C59.9928 16.4363 58.9766 18.0523 58.5102 19.0937C58.2495 19.676 58.1772 20.1361 57.9655 20.1361C57.6678 20.1361 57.8812 19.7362 57.6377 18.8495C57.3168 17.6825 56.3513 16.4363 54.2983 16.4363C52.1402 16.4363 51.2161 18.2587 50.7781 19.2597C50.4787 19.9443 50.4778 20.1352 50.2472 20.1352C49.9133 20.1352 50.1904 19.5917 50.3401 18.9518C50.6361 17.6928 50.4107 16.7313 50.4107 16.7313H46.9895V29.5883H51.6592V23.1916C51.6592 21.93 52.1875 20.3287 53.0928 20.3287C54.1382 20.3287 54.3482 21.1319 54.3482 22.618V29.5917H59.0368V23.1916C59.0368 22.0685 59.4954 20.3287 60.4772 20.3287C61.5373 20.3287 61.7258 21.4561 61.7258 22.618V29.5883H66.3301V22.0272C66.3301 18.6715 65.147 16.4346 62.0476 16.4346L62.0467 16.4363ZM141.307 16.4363C139.253 16.4363 138.237 18.0523 137.771 19.0937C137.51 19.676 137.438 20.1361 137.226 20.1361C136.928 20.1361 137.127 19.6278 136.898 18.8495C136.556 17.6885 135.705 16.4363 133.559 16.4363C131.401 16.4363 130.477 18.2587 130.039 19.2597C129.739 19.9443 129.738 20.1352 129.508 20.1352C129.174 20.1352 129.451 19.5917 129.601 18.9518C129.897 17.6928 129.671 16.7313 129.671 16.7313H126.25V29.5883H130.92V23.1916C130.92 21.93 131.448 20.3287 132.353 20.3287C133.399 20.3287 133.609 21.1319 133.609 22.618V29.5917H138.297V23.1916C138.297 22.0685 138.756 20.3287 139.738 20.3287C140.798 20.3287 140.986 21.4561 140.986 22.618V29.5883H145.591V22.0272C145.591 18.6715 144.407 16.4346 141.308 16.4346L141.307 16.4363ZM74.3023 16.4389C70.7253 16.4389 68.1586 17.753 68.1586 17.753V21.617C68.1586 21.617 70.9929 19.9881 73.2921 19.9881C75.1274 19.9881 75.3529 20.9771 75.2694 21.7984C75.2694 21.7984 74.7402 21.6582 73.1251 21.6582C69.3193 21.6582 67.3979 23.3868 67.3979 26.1595C67.3979 28.7893 69.5568 29.8884 71.3767 29.8884C74.0312 29.8884 75.198 28.1056 75.5568 27.2594C75.8055 26.6729 75.8511 26.2773 76.0748 26.2773C76.3295 26.2773 76.2435 26.5611 76.2314 27.145C76.2099 28.1676 76.2581 28.9416 76.4207 29.5926H79.94V23.2647C79.94 19.3139 78.5417 16.4389 74.3031 16.4389H74.3023ZM73.1656 26.5843C72.0487 26.8423 71.4705 26.4983 71.4705 25.7587C71.4705 24.7456 72.5194 24.3397 74.0157 24.3397C74.6757 24.3397 75.2961 24.3965 75.2961 24.3965C75.2961 24.8308 74.3539 26.3108 73.1656 26.5843ZM87.6317 12.8398H92.3014V29.5926H87.6317V12.8398ZM97.4409 23.1632C97.4409 22.0074 98.5156 20.9556 100.488 20.9556C102.637 20.9556 104.366 21.9902 104.754 22.225V17.753C104.754 17.753 103.388 16.4389 100.031 16.4389C96.4918 16.4389 93.5447 18.5089 93.5447 22.9637C93.5447 27.4185 96.2191 29.8884 100.021 29.8884C102.991 29.8884 104.762 28.2579 104.762 28.2579V24.0103C104.202 24.3234 102.641 25.4061 100.509 25.4061C98.2523 25.4061 97.4401 24.3681 97.4401 23.1641L97.4409 23.1632ZM114.214 16.4389C111.51 16.4389 110.482 18.9991 110.275 19.4438C110.067 19.8884 109.964 20.1438 109.795 20.1386C109.499 20.1292 109.705 19.5925 109.82 19.246C110.038 18.5898 110.498 16.8698 110.498 14.7542C110.498 13.3197 110.304 12.8398 110.304 12.8398H106.273V29.5926H110.942V23.1959C110.942 22.1536 111.358 20.333 112.535 20.333C113.509 20.333 113.815 21.0545 113.815 22.5079V29.5934H118.484V22.7883C118.484 19.4876 117.937 16.4406 114.214 16.4406V16.4389ZM120.002 16.7494V29.5917H124.672V16.7494C124.672 16.7494 123.887 17.2086 122.342 17.2086C120.796 17.2086 120.002 16.7494 120.002 16.7494Z" fill="black"/>
<path d="M125.182 14.5744C125.182 15.6042 123.903 16.4389 122.324 16.4389C120.745 16.4389 119.465 15.6042 119.465 14.5744C119.465 13.5447 120.745 12.71 122.324 12.71C123.903 12.71 125.182 13.5447 125.182 14.5744Z" fill="black"/>
<path d="M81.4504 16.749V29.5914H86.1201V16.749C86.1201 16.749 85.3354 17.2083 83.79 17.2083L81.4504 16.749Z" fill="black"/>
<path d="M86.6302 14.5744C86.6302 15.6042 85.3504 16.4389 83.7718 16.4389C82.1931 16.4389 80.9133 15.6042 80.9133 14.5744C80.9133 13.5447 82.1931 12.71 83.7718 12.71C85.3504 12.71 86.6302 13.5447 86.6302 14.5744Z" fill="black"/>
</g>
<defs>
<clipPath id="clip0_118_112">
<rect width="160" height="43" fill="white"/>
</clipPath>
</defs>
</svg>
