<svg width="100" height="70" viewBox="0 0 100 70" fill="none" xmlns="http://www.w3.org/2000/svg">
<path d="M41.6221 7.67378C44.844 4.3179 49.3295 2.23667 54.2903 2.23667C60.8849 2.23667 66.6384 5.91262 69.7023 11.3696C72.3648 10.1804 75.312 9.51887 78.4129 9.51887C90.307 9.51887 99.9497 19.2422 99.9497 31.236C99.9497 43.2312 90.307 52.9546 78.4129 52.9546C76.9614 52.9546 75.5426 52.8095 74.1707 52.5321C71.4726 57.3433 66.331 60.5939 60.4295 60.5939C57.959 60.5939 55.6223 60.0234 53.5418 59.0091C50.8067 65.4406 44.4341 69.9502 37.0071 69.9502C29.2727 69.9502 22.681 65.0579 20.1508 58.1968C19.045 58.4315 17.8994 58.5539 16.724 58.5539C7.51526 58.5539 0.0498047 51.0142 0.0498047 41.7119C0.0498047 35.4782 3.40399 30.0354 8.38761 27.1233C7.36157 24.7633 6.79092 22.1585 6.79092 19.42C6.79092 8.72222 15.4788 0.0501543 26.1946 0.0501543C32.486 0.0501543 38.0772 3.04042 41.6221 7.67378Z" fill="#00A1E0"/>
<path d="M14.5196 36.298C14.457 36.4617 14.5424 36.4958 14.5623 36.5243C14.7502 36.6609 14.9409 36.7591 15.133 36.8687C16.1519 37.4094 17.1139 37.5674 18.12 37.5674C20.1693 37.5674 21.4415 36.4773 21.4415 34.7226V34.6885C21.4415 33.0662 20.0056 32.477 18.658 32.0515L18.4829 31.9946C17.4668 31.6645 16.5902 31.3798 16.5902 30.711V30.6754C16.5902 30.1033 17.1025 29.6821 17.8966 29.6821C18.7789 29.6821 19.8263 29.9753 20.5008 30.3481C20.5008 30.3481 20.6987 30.4762 20.7712 30.2841C20.8111 30.1816 21.1526 29.2623 21.1882 29.1627C21.2266 29.0545 21.1583 28.9748 21.0886 28.9321C20.3187 28.4639 19.2542 28.1438 18.1528 28.1438L17.9478 28.1452C16.0722 28.1452 14.763 29.278 14.763 30.9017V30.9358C14.763 32.6478 16.2074 33.2028 17.5608 33.5899L17.7785 33.6568C18.7647 33.9599 19.6143 34.2203 19.6143 34.9148V34.9489C19.6143 35.5836 19.0621 36.0561 18.1713 36.0561C17.8255 36.0561 16.7226 36.049 15.5315 35.2961C15.3877 35.2122 15.3038 35.151 15.1928 35.0841C15.1344 35.0471 14.9878 34.9831 14.9238 35.1766L14.5196 36.298Z" fill="white"/>
<path d="M44.5192 36.298C44.4565 36.4617 44.5419 36.4958 44.5619 36.5243C44.7497 36.6609 44.9404 36.7591 45.1325 36.8687C46.1514 37.4094 47.1134 37.5674 48.1195 37.5674C50.1687 37.5674 51.441 36.4773 51.441 34.7226V34.6885C51.441 33.0662 50.0051 32.477 48.6574 32.0515L48.4824 31.9946C47.4663 31.6645 46.5897 31.3798 46.5897 30.711V30.6754C46.5897 30.1033 47.102 29.6821 47.8961 29.6821C48.7784 29.6821 49.8258 29.9753 50.5003 30.3481C50.5003 30.3481 50.6981 30.4762 50.7707 30.2841C50.8105 30.1816 51.1521 29.2623 51.1877 29.1627C51.2261 29.0545 51.1578 28.9748 51.088 28.9321C50.3182 28.4639 49.2537 28.1438 48.1523 28.1438L47.9473 28.1452C46.0717 28.1452 44.7625 29.278 44.7625 30.9017V30.9358C44.7625 32.6478 46.2069 33.2028 47.5603 33.5899L47.778 33.6568C48.7642 33.9599 49.6152 34.2203 49.6152 34.9148V34.9489C49.6152 35.5836 49.0616 36.0561 48.1708 36.0561C47.8249 36.0561 46.7221 36.049 45.531 35.2961C45.3872 35.2122 45.3018 35.1538 45.1937 35.0841C45.1567 35.0599 44.9831 34.993 44.9233 35.1766L44.5192 36.298Z" fill="white"/>
<path d="M64.9994 32.8608C64.9994 33.8527 64.8144 34.634 64.4501 35.1861C64.0901 35.7326 63.545 35.9987 62.7851 35.9987C62.0237 35.9987 61.4816 35.734 61.1272 35.1861C60.7686 34.6354 60.5864 33.8527 60.5864 32.8608C60.5864 31.8704 60.7686 31.0905 61.1272 30.544C61.4816 30.0033 62.0237 29.74 62.7851 29.74C63.545 29.74 64.0901 30.0033 64.4515 30.544C64.8144 31.0905 64.9994 31.8704 64.9994 32.8608ZM66.71 31.0222C66.542 30.4544 66.2802 29.9535 65.9315 29.5365C65.5829 29.1181 65.1417 28.7823 64.618 28.5375C64.0958 28.2942 63.4781 28.1704 62.7851 28.1704C62.0906 28.1704 61.473 28.2942 60.9507 28.5375C60.4271 28.7823 59.9859 29.1181 59.6358 29.5365C59.2886 29.9549 59.0267 30.4558 58.8574 31.0222C58.6909 31.5872 58.6069 32.2048 58.6069 32.8608C58.6069 33.5168 58.6909 34.1359 58.8574 34.6994C59.0267 35.2658 59.2872 35.7667 59.6372 36.1851C59.9859 36.6035 60.4285 36.9379 60.9507 37.1756C61.4744 37.4132 62.0906 37.5342 62.7851 37.5342C63.4781 37.5342 64.0943 37.4132 64.618 37.1756C65.1403 36.9379 65.5829 36.6035 65.9315 36.1851C66.2802 35.7681 66.542 35.2672 66.71 34.6994C66.8779 34.1345 66.9618 33.5154 66.9618 32.8608C66.9618 32.2062 66.8779 31.5872 66.71 31.0222Z" fill="white"/>
<path fill-rule="evenodd" clip-rule="evenodd" d="M80.7568 35.7334C80.6999 35.5669 80.5391 35.6295 80.5391 35.6295C80.2901 35.7248 80.0254 35.8131 79.7436 35.8572C79.4576 35.9013 79.1431 35.9241 78.8058 35.9241C77.9776 35.9241 77.3201 35.6779 76.8491 35.1912C76.3766 34.7045 76.1119 33.9175 76.1148 32.8531C76.1176 31.8839 76.351 31.1553 76.7708 30.6003C77.1878 30.0482 77.8225 29.765 78.6692 29.765C79.375 29.765 79.9129 29.8461 80.4765 30.024C80.4765 30.024 80.6117 30.0823 80.6757 29.9059C80.8251 29.4903 80.9361 29.1929 81.0955 28.7361C81.1411 28.6066 81.0301 28.5511 80.9902 28.5354C80.7682 28.4486 80.2445 28.3078 79.8489 28.248C79.4789 28.1911 79.0463 28.1612 78.5653 28.1612C77.8467 28.1612 77.2063 28.2836 76.6584 28.5283C76.1119 28.7717 75.648 29.1075 75.2809 29.5259C74.9137 29.9443 74.6348 30.4452 74.4484 31.0116C74.2634 31.5766 74.1694 32.197 74.1694 32.8531C74.1694 34.2719 74.5522 35.4189 75.3079 36.2585C76.065 37.101 77.202 37.5293 78.6848 37.5293C79.5615 37.5293 80.4608 37.3514 81.1069 37.0967C81.1069 37.0967 81.2307 37.0369 81.1766 36.8932L80.7568 35.7334Z" fill="white"/>
<path fill-rule="evenodd" clip-rule="evenodd" d="M83.7497 31.9107C83.8308 31.36 83.9831 30.9017 84.2179 30.5445C84.5722 30.0023 85.113 29.7049 85.8729 29.7049C86.6328 29.7049 87.1352 30.0038 87.4952 30.5445C87.7343 30.9017 87.8382 31.3799 87.8794 31.9107H83.7497ZM89.5089 30.6996C89.3637 30.1518 89.0037 29.5982 88.7674 29.3449C88.3946 28.9436 88.0303 28.6632 87.6688 28.5067C87.1964 28.3046 86.63 28.1708 86.0095 28.1708C85.2866 28.1708 84.6306 28.2918 84.0983 28.5423C83.5647 28.7927 83.1164 29.1343 82.7649 29.5598C82.4134 29.9838 82.1487 30.489 81.9808 31.0625C81.8115 31.6332 81.7261 32.2551 81.7261 32.9111C81.7261 33.5785 81.8143 34.2004 81.9893 34.7597C82.1658 35.3232 82.4476 35.8199 82.829 36.2312C83.2089 36.6453 83.6985 36.9697 84.2848 37.196C84.8668 37.4209 85.5741 37.5375 86.3866 37.5361C88.0587 37.5304 88.9396 37.1576 89.3025 36.9569C89.3665 36.9213 89.4277 36.8587 89.3509 36.6794L88.9724 35.6192C88.9154 35.4613 88.7546 35.5196 88.7546 35.5196C88.3405 35.6733 87.7514 35.9494 86.3781 35.9465C85.4801 35.9451 84.8141 35.6804 84.3972 35.2663C83.9688 34.8422 83.7596 34.2189 83.7226 33.3395L89.5131 33.3452C89.5131 33.3452 89.6654 33.3423 89.681 33.1943C89.6867 33.1317 89.8803 32.0046 89.5089 30.6996Z" fill="white"/>
<path fill-rule="evenodd" clip-rule="evenodd" d="M37.3762 31.9107C37.4587 31.36 37.6095 30.9017 37.8443 30.5445C38.1987 30.0023 38.7395 29.7049 39.4994 29.7049C40.2593 29.7049 40.7616 30.0038 41.1231 30.5445C41.3608 30.9017 41.4646 31.3799 41.5059 31.9107H37.3762ZM43.1339 30.6996C42.9888 30.1518 42.6301 29.5982 42.3939 29.3449C42.0211 28.9436 41.6568 28.6632 41.2953 28.5067C40.8228 28.3046 40.2565 28.1708 39.636 28.1708C38.9145 28.1708 38.257 28.2918 37.7248 28.5423C37.1912 28.7927 36.7429 29.1343 36.3914 29.5598C36.0399 29.9838 35.7752 30.489 35.6073 31.0625C35.4393 31.6332 35.3525 32.2551 35.3525 32.9111C35.3525 33.5785 35.4408 34.2004 35.6158 34.7597C35.7923 35.3232 36.074 35.8199 36.4554 36.2312C36.8354 36.6453 37.3249 36.9697 37.9112 37.196C38.4933 37.4209 39.2005 37.5375 40.0131 37.5361C41.6852 37.5304 42.5661 37.1576 42.929 36.9569C42.993 36.9213 43.0542 36.8587 42.9774 36.6794L42.6003 35.6192C42.5419 35.4613 42.3811 35.5196 42.3811 35.5196C41.967 35.6733 41.3793 35.9494 40.0032 35.9465C39.1066 35.9451 38.4406 35.6804 38.0237 35.2663C37.5953 34.8422 37.3861 34.2189 37.3491 33.3395L43.1396 33.3452C43.1396 33.3452 43.2919 33.3423 43.3075 33.1943C43.3132 33.1317 43.5068 32.0046 43.1339 30.6996Z" fill="white"/>
<path d="M24.8597 35.7022C24.6335 35.5215 24.6022 35.476 24.5253 35.3593C24.4115 35.1814 24.3531 34.9281 24.3531 34.6065C24.3531 34.097 24.521 33.7313 24.8697 33.4851C24.8654 33.4865 25.3678 33.0511 26.5489 33.0667C27.3786 33.0781 28.12 33.2005 28.12 33.2005V35.8332H28.1214C28.1214 35.8332 27.3857 35.9911 26.5575 36.0409C25.3792 36.1121 24.8555 35.7008 24.8597 35.7022ZM27.1637 31.6337C26.9289 31.6166 26.6243 31.6066 26.26 31.6066C25.7634 31.6066 25.2838 31.6692 24.8341 31.7902C24.3816 31.9112 23.9746 32.1004 23.6245 32.3509C23.273 32.6028 22.9898 32.9244 22.7849 33.3058C22.58 33.6872 22.4761 34.1369 22.4761 34.6406C22.4761 35.1529 22.5643 35.5984 22.7408 35.9627C22.9172 36.3284 23.172 36.6329 23.4964 36.8677C23.818 37.1025 24.2151 37.2747 24.6762 37.3786C25.1301 37.4825 25.6453 37.5352 26.2088 37.5352C26.8022 37.5352 27.3942 37.4868 27.9677 37.3886C28.5355 37.2918 29.2328 37.1509 29.4264 37.1068C29.6185 37.0613 29.832 37.0029 29.832 37.0029C29.9757 36.9673 29.9643 36.8137 29.9643 36.8137L29.9615 31.5184C29.9615 30.3572 29.6512 29.4962 29.0407 28.9626C28.4331 28.4303 27.538 28.1614 26.381 28.1614C25.947 28.1614 25.2482 28.2211 24.8298 28.3051C24.8298 28.3051 23.5647 28.5499 23.0439 28.9569C23.0439 28.9569 22.93 29.028 22.9927 29.1874L23.4025 30.2889C23.4537 30.4312 23.5918 30.3828 23.5918 30.3828C23.5918 30.3828 23.6359 30.3657 23.6871 30.3358C24.8014 29.7296 26.2102 29.7481 26.2102 29.7481C26.8364 29.7481 27.3174 29.8733 27.6418 30.1224C27.9578 30.3643 28.1186 30.73 28.1186 31.5013V31.7461C27.6205 31.6749 27.1637 31.6337 27.1637 31.6337Z" fill="white"/>
<path fill-rule="evenodd" clip-rule="evenodd" d="M73.8665 28.6503C73.9106 28.5193 73.8181 28.4567 73.7797 28.4425C73.6815 28.4041 73.1891 28.3002 72.8092 28.276C72.082 28.2319 71.6778 28.3543 71.3164 28.5165C70.9577 28.6787 70.5593 28.9406 70.3373 29.238V28.5336C70.3373 28.4354 70.2675 28.3571 70.1708 28.3571H68.6865C68.5897 28.3571 68.52 28.4354 68.52 28.5336V37.1702C68.52 37.267 68.5997 37.3467 68.6965 37.3467H70.2177C70.3145 37.3467 70.3928 37.267 70.3928 37.1702V32.8555C70.3928 32.2763 70.4568 31.6985 70.5849 31.3356C70.7101 30.977 70.8809 30.6895 71.0915 30.4832C71.3035 30.2783 71.544 30.1345 71.8073 30.0534C72.0763 29.9709 72.3737 29.9438 72.5843 29.9438C72.8874 29.9438 73.2204 30.0221 73.2204 30.0221C73.3314 30.0349 73.394 29.9666 73.431 29.8656C73.5306 29.6009 73.8124 28.8082 73.8665 28.6503Z" fill="white"/>
<path fill-rule="evenodd" clip-rule="evenodd" d="M59.5869 24.6459C59.4019 24.589 59.234 24.5505 59.0149 24.5093C58.7929 24.4694 58.5282 24.4495 58.2279 24.4495C57.1805 24.4495 56.3551 24.7455 55.7759 25.329C55.1996 25.9096 54.8083 26.7933 54.6119 27.956L54.5407 28.3473H53.2258C53.2258 28.3473 53.0664 28.3416 53.0323 28.5152L52.8174 29.7206C52.8017 29.8344 52.8515 29.907 53.0052 29.907H54.2846L52.9867 37.1533C52.8857 37.7368 52.769 38.2163 52.6395 38.5807C52.5128 38.9393 52.389 39.2082 52.2353 39.4046C52.0873 39.5925 51.9479 39.7319 51.706 39.813C51.5067 39.8799 51.2762 39.9112 51.0243 39.9112C50.8848 39.9112 50.6984 39.8885 50.5604 39.86C50.4238 39.833 50.3512 39.8031 50.2473 39.759C50.2473 39.759 50.0979 39.702 50.0381 39.8515C49.9911 39.9753 49.6496 40.9131 49.6083 41.0283C49.5685 41.1436 49.6254 41.2333 49.698 41.2603C49.8688 41.3201 49.9954 41.3599 50.2274 41.4154C50.549 41.4908 50.8208 41.4951 51.0755 41.4951C51.6078 41.4951 52.0945 41.4197 52.4972 41.2745C52.9013 41.128 53.2543 40.8732 53.5673 40.5288C53.9046 40.156 54.1166 39.7661 54.3187 39.2324C54.5194 38.7059 54.6916 38.0513 54.8282 37.2885L56.1331 29.907H58.0401C58.0401 29.907 58.2009 29.9127 58.2336 29.7377L58.4499 28.5337C58.4641 28.4185 58.4157 28.3473 58.2606 28.3473H56.4092C56.4192 28.306 56.5031 27.6543 56.7152 27.0409C56.8062 26.7805 56.977 26.5685 57.1207 26.4233C57.2631 26.281 57.4267 26.18 57.606 26.1216C57.7896 26.0618 57.9988 26.0334 58.2279 26.0334C58.4015 26.0334 58.5737 26.0533 58.7032 26.0804C58.8825 26.1188 58.9522 26.1387 58.9992 26.1529C59.1885 26.2098 59.2141 26.1543 59.2511 26.0633L59.6937 24.848C59.7392 24.717 59.6268 24.6615 59.5869 24.6459Z" fill="white"/>
<path fill-rule="evenodd" clip-rule="evenodd" d="M33.7191 37.1707C33.7191 37.2674 33.6494 37.3457 33.5526 37.3457H32.0171C31.9204 37.3457 31.8521 37.2674 31.8521 37.1707V24.8126C31.8521 24.7159 31.9204 24.6376 32.0171 24.6376H33.5526C33.6494 24.6376 33.7191 24.7159 33.7191 24.8126V37.1707Z" fill="white"/>
</svg>
