<svg width="100" height="29" viewBox="0 0 100 29" fill="none" xmlns="http://www.w3.org/2000/svg">
<path d="M18.1364 2.763C17.7046 1.46143 16.3182 0.753554 15.0228 1.16458C13.7273 1.59844 13.0228 2.99135 13.4319 4.29293L19.8182 24.0221C20.25 25.2323 21.5682 25.9173 22.8182 25.552C24.1364 25.1638 24.9319 23.7709 24.5 22.4921C24.5 22.4465 18.1364 2.763 18.1364 2.763Z" fill="#ECB32D"/>
<path d="M8.25017 5.98273C7.81835 4.68115 6.43198 3.97328 5.13653 4.3843C3.84108 4.81816 3.13653 6.21108 3.54562 7.51265L9.93198 27.2418C10.3638 28.452 11.682 29.1371 12.932 28.7717C14.2502 28.3835 15.0456 26.9906 14.6138 25.7119C14.6138 25.6662 8.25017 5.98273 8.25017 5.98273Z" fill="#63C1A0"/>
<path d="M26.182 19.0896C27.4774 18.6557 28.182 17.2628 27.7729 15.9612C27.3411 14.6597 25.9547 13.9518 24.6593 14.3628L5.00017 20.8022C3.79563 21.2361 3.11381 22.5605 3.47745 23.8164C3.86381 25.1408 5.25017 25.94 6.5229 25.5061C6.56835 25.5061 26.182 19.0896 26.182 19.0896Z" fill="#E01A59"/>
<path d="M9.09109 24.6844C10.3638 24.2734 12.0229 23.7254 13.7956 23.1545C13.3865 21.8758 12.8411 20.2088 12.2729 18.4277L7.56836 19.9577L9.09109 24.6844Z" fill="#331433"/>
<path d="M19 21.4413C20.7728 20.8704 22.4318 20.3224 23.7046 19.9113C23.2955 18.6326 22.75 16.9657 22.1818 15.1846L17.4773 16.7145L19 21.4413Z" fill="#D62027"/>
<path d="M22.9547 9.15697C24.2501 8.72312 24.9547 7.3302 24.5456 6.02863C24.1138 4.72705 22.7274 4.01918 21.4319 4.4302L1.79558 10.8467C0.591039 11.2806 -0.0907796 12.605 0.272857 13.8609C0.65922 15.1853 2.04558 15.9845 3.31831 15.5507C3.36377 15.5507 22.9547 9.15697 22.9547 9.15697Z" fill="#89D3DF"/>
<path d="M5.8865 14.7284C7.15922 14.3173 8.81832 13.7693 10.591 13.1985C10.0229 11.4174 9.47741 9.75042 9.06832 8.47168L4.36377 10.0016L5.8865 14.7284Z" fill="#258B74"/>
<path d="M15.7727 11.5086C17.5455 10.9378 19.2045 10.3897 20.4773 9.97872C19.9091 8.19762 19.3636 6.53069 18.9545 5.25195L14.25 6.78187L15.7727 11.5086Z" fill="#819C3C"/>
<path d="M46.0908 7.94619C46.9545 8.33438 47.0226 8.6084 46.3408 9.90997C45.6363 11.2344 45.4772 11.3257 44.6136 10.9832C43.5454 10.5265 42.159 10.184 41.2726 10.184C39.8181 10.184 38.8636 10.7092 38.8636 11.5084C38.8636 14.1344 47.1817 12.7186 47.1817 18.2903C47.1817 21.0989 44.7726 22.9714 41.1817 22.9714C39.2954 22.9714 36.9545 22.332 35.3408 21.51C34.5454 21.0989 34.4772 20.8706 35.1817 19.5234C35.7726 18.3588 35.9772 18.2218 36.8408 18.5871C38.2045 19.1808 39.9545 19.6604 41.1136 19.6604C42.4317 19.6604 43.3181 19.1123 43.3181 18.336C43.3181 15.8013 34.8408 17.0115 34.8408 11.5997C34.8408 8.72257 37.2272 6.80446 40.7954 6.80446C42.5226 6.78162 44.6363 7.28399 46.0908 7.94619Z" fill="#2D333A"/>
<path d="M52.8181 1.32426V22.1495C52.8181 22.4691 52.4772 22.7888 52.0227 22.7888H49.8409C49.3636 22.7888 49.0454 22.4463 49.0454 22.1495V1.32426C49.0454 0.296699 49.3409 0.205361 50.9318 0.205361C52.75 0.182526 52.8181 0.319534 52.8181 1.32426Z" fill="#2D333A"/>
<path d="M68.3181 13.0161V21.9901C68.3181 22.4696 67.9771 22.7893 67.5226 22.7893H65.3635C64.8635 22.7893 64.5226 22.424 64.5681 21.9216L64.5908 20.9625C63.4317 22.2641 61.7499 22.9492 60.068 22.9492C56.818 22.9492 54.6362 21.0539 54.6362 18.2452C54.6362 15.2539 57.0908 13.2216 60.7953 13.2216C62.2044 13.2216 63.4771 13.4728 64.5226 13.9066V12.8791C64.5226 11.235 63.2271 10.2531 61.0226 10.2531C59.9999 10.2531 58.7271 10.6641 57.7271 11.2578C56.9544 11.6917 56.7726 11.6688 55.9317 10.4129C55.1135 9.15703 55.1362 8.92868 55.9317 8.40349C57.4544 7.4216 59.4999 6.78223 61.3862 6.78223C65.6362 6.78223 68.3181 9.08853 68.3181 13.0161ZM58.2726 18.2224C58.2726 19.2956 59.1817 20.0035 60.5226 20.0035C62.159 20.0035 63.659 19.2043 64.5226 17.857V16.4641C63.659 16.1216 62.5908 15.9389 61.659 15.9389C59.6135 15.9389 58.2726 16.898 58.2726 18.2224Z" fill="#2D333A"/>
<path d="M83.0908 7.96963C83.8863 8.42632 83.909 8.6775 83.0453 10.0247C82.2272 11.3035 82.0908 11.372 81.2044 10.9381C80.5453 10.5956 79.4772 10.2988 78.6135 10.2988C75.8863 10.2988 74.0681 12.1027 74.0681 14.8429C74.0681 17.6744 75.8863 19.5925 78.6135 19.5925C79.5681 19.5925 80.7499 19.2271 81.5226 18.7933C82.3181 18.3366 82.4772 18.3594 83.3181 19.5925C84.0681 20.7342 84.0681 21.0082 83.3863 21.4877C82.159 22.3326 80.2499 22.972 78.5453 22.972C73.4999 22.972 70.1135 19.7295 70.1135 14.8429C70.1135 10.0019 73.4999 6.78223 78.5908 6.78223C80.1363 6.78223 81.9544 7.30742 83.0908 7.96963Z" fill="#2D333A"/>
<path d="M99.591 20.8248C100.227 21.624 99.9774 21.9208 98.3865 22.4917C96.7728 23.0854 96.5456 23.0397 95.9774 22.309L91.4546 16.2578L89.4319 18.2216V22.1492C89.4319 22.4689 89.091 22.7885 88.6365 22.7885H86.4546C85.9774 22.7885 85.6592 22.446 85.6592 22.1492V1.32398C85.6592 0.296417 85.9546 0.205078 87.5455 0.205078C89.3865 0.205078 89.4319 0.342086 89.4319 1.32398V13.1523L95.6137 7.19248C96.2956 6.55311 96.6819 6.59878 97.8865 7.39799C99.2274 8.26571 99.3183 8.51689 98.6819 9.13342L94.091 13.6547L99.591 20.8248Z" fill="#2D333A"/>
</svg>
