<svg width="60" height="60" viewBox="0 0 60 60" fill="none" xmlns="http://www.w3.org/2000/svg">
<g clip-path="url(#clip0_118_625)">
<path fill-rule="evenodd" clip-rule="evenodd" d="M29.9984 4.2031C36.7275 4.2031 42.8544 6.78172 47.4471 11.0036C45.196 10.9432 42.9496 12.2813 42.8567 15.3454C42.6673 21.5399 50.2638 22.8594 46.1706 35.3192L42.7847 45.6256L33.5632 18.4618C33.4203 18.0413 33.5864 17.8021 34.1033 17.8021H36.7104C36.8459 17.8021 36.9567 17.6864 36.9567 17.5447V16.0005C36.9567 15.8589 36.8456 15.7374 36.7104 15.7432C31.7733 15.9591 26.8652 15.9606 21.9867 15.7432C21.8508 15.7374 21.7405 15.8594 21.7405 16.0011V17.5452C21.7405 17.6868 21.8513 17.8026 21.9867 17.8026H24.6081C25.1912 17.8026 25.3544 17.9969 25.4919 18.3728L29.2809 28.7349L23.5812 45.9454L14.2122 18.3495C14.0961 18.0034 14.2366 17.8025 14.57 17.8025H17.5569C17.6923 17.8025 17.8031 17.6868 17.8031 17.5451V16.0009C17.8031 15.8593 17.6919 15.7365 17.5569 15.7436C14.423 15.9101 11.2772 15.9435 8.34689 15.9736C12.9453 8.8901 20.924 4.20259 29.9968 4.20259L29.9968 4.20252L29.9984 4.2031ZM52.6856 17.7153C54.6678 21.3673 55.7933 25.5515 55.7933 29.9974C55.7933 39.7549 50.3718 48.2475 42.3787 52.6312L50.4235 29.8453C51.6699 26.3188 52.8268 21.553 52.6851 17.7153H52.685H52.6856ZM38.6345 54.3084C35.9339 55.269 33.0277 55.7929 29.9984 55.7929C27.3885 55.7929 24.8702 55.4038 22.4961 54.6836L30.4427 31.9105L38.6344 54.3096L38.6345 54.3084ZM18.9603 53.3165C10.237 49.1794 4.20296 40.2921 4.20296 29.9986C4.20296 26.1827 5.03305 22.5603 6.52081 19.3013L18.9609 53.317L18.9609 53.3169L18.9603 53.3165ZM29.9976 1.78245C45.5774 1.78245 58.2126 14.4177 58.2126 29.9974C58.2126 45.5772 45.5774 58.2124 29.9976 58.2124C14.4179 58.2124 1.78266 45.5772 1.78266 29.9974C1.78266 14.4177 14.4179 1.78245 29.9976 1.78245ZM29.9976 -0.000976562C46.5623 -0.000976562 59.9967 13.4334 59.9967 29.9981C59.9967 46.5628 46.5623 59.9972 29.9976 59.9972C13.4329 59.9972 -0.00146484 46.5628 -0.00146484 29.9981C-0.00146484 13.4334 13.4329 -0.000976562 29.9976 -0.000976562Z" fill="#464342"/>
</g>
<defs>
<clipPath id="clip0_118_625">
<rect width="60" height="60" fill="white"/>
</clipPath>
</defs>
</svg>
