<svg width="100" height="71" viewBox="0 0 100 71" fill="none" xmlns="http://www.w3.org/2000/svg">
<path d="M47.7719 11.2324V41.8276H22.3643L47.7719 11.2324Z" fill="#03363D"/>
<path d="M47.7719 0.243164C47.7719 7.23477 42.0925 12.8985 35.0816 12.8985C28.0708 12.8985 22.3643 7.23477 22.3643 0.243164H47.7719Z" fill="#03363D"/>
<path d="M51.9565 41.8115C51.9565 34.8199 57.6359 29.1562 64.6468 29.1562C71.6576 29.1562 77.337 34.8199 77.337 41.8115H51.9565Z" fill="#03363D"/>
<path d="M51.9565 30.8382V0.243164H77.3641L51.9565 30.8382Z" fill="#03363D"/>
<path d="M66.1686 67.9415C67.799 67.9415 68.9675 67.264 69.674 66.5865L71.4131 68.4564C70.2718 69.6487 68.6686 70.5159 66.1686 70.5159C61.9023 70.5159 59.1577 67.6976 59.1577 63.8766C59.1577 60.0827 62.0653 57.2373 65.7882 57.2373C70.0273 57.2373 72.4186 60.435 72.2012 64.9064H62.2284C62.5816 66.7762 63.886 67.9415 66.1686 67.9415ZM69.2121 62.7926C68.9403 61.0583 67.9077 59.7846 65.8425 59.7846C63.9132 59.7846 62.5816 60.8686 62.2284 62.7926H69.2121Z" fill="#03363D"/>
<path d="M0.543457 67.8273L8.23368 60.0229H0.733674V57.584H11.7935V60.0771L4.10324 67.8815H11.9022V70.3203H0.543457V67.8273Z" fill="#03363D"/>
<path d="M20.5436 67.9415C22.174 67.9415 23.3425 67.264 24.049 66.5865L25.7881 68.4564C24.6468 69.6487 23.0436 70.5159 20.5436 70.5159C16.2773 70.5159 13.5327 67.6976 13.5327 63.8766C13.5327 60.0827 16.4403 57.2373 20.1631 57.2373C24.4023 57.2373 26.7936 60.435 26.5762 64.9064H16.6034C16.9566 66.7762 18.261 67.9415 20.5436 67.9415ZM23.5871 62.7926C23.3153 61.0583 22.2827 59.7846 20.2175 59.7846C18.2881 59.7846 16.9566 60.8686 16.6034 62.7926H23.5871Z" fill="#03363D"/>
<path d="M43.2065 63.8853C43.2065 59.8203 46.25 57.273 49.6196 57.273C51.3044 57.273 52.9348 58.0046 53.8859 59.197V51.6904H56.6033V70.2808H53.8859V68.4922C52.9076 69.7388 51.3044 70.4976 49.5924 70.4976C46.3315 70.4976 43.2065 67.9231 43.2065 63.8853ZM54.0218 63.8582C54.0218 61.5818 52.3098 59.739 49.9729 59.739C47.6902 59.739 45.9239 61.5547 45.9239 63.8582C45.9239 66.1616 47.6902 68.0044 49.9729 68.0044C52.3098 68.0044 54.0218 66.1345 54.0218 63.8582Z" fill="#03363D"/>
<path d="M73.9946 67.5705L76.4675 66.2968C77.174 67.4621 78.2881 68.1666 79.7555 68.1666C81.3044 68.1666 82.0925 67.3808 82.0925 66.4865C82.0925 65.4567 80.5979 65.2399 78.9946 64.9147C76.8207 64.454 74.5653 63.7495 74.5653 61.1208C74.5653 59.1155 76.4946 57.2457 79.5109 57.2728C81.9022 57.2728 83.6685 58.2212 84.674 59.7388L82.3914 60.9853C81.7935 60.0911 80.8153 59.522 79.5109 59.522C78.0435 59.522 77.3098 60.2266 77.3098 61.0395C77.3098 61.9609 78.4783 62.2048 80.3262 62.6113C82.4185 63.072 84.8099 63.7495 84.8099 66.4052C84.8099 68.1666 83.2609 70.5243 79.6196 70.4972C76.9566 70.5243 75.0816 69.4674 73.9946 67.5705Z" fill="#03363D"/>
<path d="M92.1737 64.6166L90.027 66.9742V70.2802H87.3096V51.6904H90.027V63.8578L95.7878 57.5438H99.1031L94.103 62.9906L99.2389 70.2802H96.1411L92.1737 64.6166Z" fill="#03363D"/>
<path d="M35.0001 57.2725C31.7664 57.2725 29.0762 59.3591 29.0762 62.8278V70.2801H31.8479V63.1801C31.8479 61.0935 33.0436 59.8469 35.1088 59.8469C37.174 59.8469 38.1794 61.0935 38.1794 63.1801V70.2801H40.9512V62.8278C40.924 59.3591 38.2338 57.2725 35.0001 57.2725Z" fill="#03363D"/>
</svg>
