<svg width="20" height="20" viewBox="0 0 20 20" fill="none" xmlns="http://www.w3.org/2000/svg">
<path d="M6.81111 6.11106C6.81111 4.34905 8.23799 2.92217 10 2.92217C11.762 2.92217 13.1889 4.34904 13.1889 6.11106C13.1889 7.87307 11.762 9.29995 10 9.29995C8.23799 9.29995 6.81111 7.87307 6.81111 6.11106ZM2.92222 14.8611C2.92222 14.4716 3.11175 14.0787 3.54722 13.6768C3.98745 13.2705 4.63072 12.904 5.39798 12.5966C6.93363 11.9814 8.78959 11.6722 10 11.6722C11.2104 11.6722 13.0664 11.9814 14.602 12.5966C15.3693 12.904 16.0126 13.2705 16.4528 13.6768C16.8883 14.0787 17.0778 14.4716 17.0778 14.8611V17.0777H2.92222V14.8611Z" stroke="#C2CFE0" stroke-width="1.4"/>
</svg>
