<svg width="18" height="18" viewBox="0 0 18 18" fill="none" xmlns="http://www.w3.org/2000/svg">
<path d="M4.5 3.75H2.25C1.8375 3.75 1.5 4.0875 1.5 4.5V13.5C1.5 13.9125 1.8375 14.25 2.25 14.25H4.5C4.9125 14.25 5.25 13.9125 5.25 13.5V4.5C5.25 4.0875 4.9125 3.75 4.5 3.75ZM15 3.75H12.75C12.3375 3.75 12 4.0875 12 4.5V13.5C12 13.9125 12.3375 14.25 12.75 14.25H15C15.4125 14.25 15.75 13.9125 15.75 13.5V4.5C15.75 4.0875 15.4125 3.75 15 3.75ZM9.75 3.75H7.5C7.0875 3.75 6.75 4.0875 6.75 4.5V13.5C6.75 13.9125 7.0875 14.25 7.5 14.25H9.75C10.1625 14.25 10.5 13.9125 10.5 13.5V4.5C10.5 4.0875 10.1625 3.75 9.75 3.75Z" fill="#109CF1"/>
</svg>
