<svg width="32" height="32" viewBox="0 0 32 32" fill="none" xmlns="http://www.w3.org/2000/svg">
<rect x="4" y="10" width="24" height="12" rx="2" fill="#C2CFE0"/>
<path d="M16.8999 24.8002L14.0999 23.4002L13.3999 24.1002L14.7999 26.2001L16.1999 26.9001L17.8487 28.5801H21.7999L22.4999 28.3001L23.8999 27.6001L24.5999 26.2001V21.3001L23.8999 20.6001H23.1999L22.4999 19.9001H21.0999L20.3999 19.2001L19.6999 19.9001L18.9999 19.2001V16.4001V15.7001L18.2999 15.4202L17.5999 15.7002V24.1002L16.8999 24.8002Z" fill="#A0AEC1"/>
<path d="M23.667 20.25C23.4517 20.25 23.2497 20.3087 23.0763 20.4109C23.011 19.8287 22.516 19.375 21.917 19.375C21.6322 19.375 21.3704 19.4781 21.167 19.6499C20.9628 19.3106 20.5911 19.0833 20.167 19.0833C19.9548 19.0833 19.7554 19.1403 19.5837 19.24V16.1667C19.5836 15.5232 19.0604 15 18.417 15C17.7736 15 17.2503 15.5232 17.2503 16.1667V23.9727C17.2503 24.1197 17.1535 24.1952 17.1119 24.2208C17.0703 24.2465 16.9583 24.2992 16.8282 24.2337L14.9551 23.2971C14.7845 23.2117 14.5934 23.1667 14.4026 23.1667C13.7212 23.1667 13.167 23.721 13.167 24.4023V24.625C13.167 24.7059 13.2006 24.7831 13.2596 24.8383L16.626 27.9803C17.3306 28.6377 18.2495 29 19.2131 29H21.042C23.1326 29 24.8336 27.299 24.8336 25.2083V21.4167C24.8336 20.7732 24.3104 20.25 23.667 20.25ZM24.2503 25.2083C24.2503 26.9774 22.8111 28.4166 21.042 28.4166H19.2131C18.3979 28.4166 17.6203 28.1102 17.0242 27.5536L13.7503 24.4983V24.4023C13.7503 24.0425 14.0428 23.75 14.4026 23.75C14.5031 23.75 14.6042 23.7739 14.6943 23.8189L16.5673 24.7555C16.8405 24.8924 17.1589 24.8774 17.4186 24.7173C17.6784 24.5566 17.8336 24.2784 17.8336 23.9727V16.1667C17.8336 15.8451 18.0954 15.5834 18.417 15.5834C18.7385 15.5834 19.0003 15.8451 19.0003 16.1667V20.5417C19.0003 20.7029 19.1307 20.8334 19.292 20.8334C19.4532 20.8334 19.5836 20.7029 19.5836 20.5417V20.25C19.5836 19.9284 19.8454 19.6667 20.167 19.6667C20.4885 19.6667 20.7503 19.9284 20.7503 20.25V20.5417C20.7503 20.5423 20.7503 20.5428 20.7503 20.5434V20.5437C20.7514 20.7037 20.8816 20.8334 21.042 20.8334C21.2032 20.8334 21.3336 20.7029 21.3336 20.5417V20.5371C21.3359 20.2178 21.5974 19.9583 21.917 19.9583C22.2385 19.9583 22.5003 20.2201 22.5003 20.5416V21.4166C22.5003 21.5779 22.6307 21.7083 22.792 21.7083C22.9532 21.7083 23.0836 21.5779 23.0836 21.4166C23.0836 21.0951 23.3454 20.8333 23.667 20.8333C23.9885 20.8333 24.2503 21.0951 24.2503 21.4167V25.2083Z" fill="#A0AEC1"/>
</svg>
