<svg width="32" height="32" viewBox="0 0 32 32" fill="none" xmlns="http://www.w3.org/2000/svg">
<path d="M27.9881 6.40001C27.9881 5.08 26.9201 4 25.6001 4H6.40001C5.08 4 4 5.08 4 6.40001V20.8001C4 22.1201 5.08 23.2001 6.40001 23.2001H23.2001L28.0001 28.0001L27.9881 6.40001Z" fill="#C2CFE0"/>
<rect width="0.900003" height="10.8" transform="matrix(-1 0 0 1 18.6997 7.8999)" fill="#EBEFF2" stroke="#EBEFF2" stroke-width="0.360001"/>
<rect width="0.900003" height="10.8" transform="matrix(4.37114e-08 1 1 -4.37114e-08 10.5996 10.5999)" fill="#EBEFF2" stroke="#EBEFF2" stroke-width="0.360001"/>
<rect width="0.900003" height="10.8" transform="matrix(4.37114e-08 1 1 -4.37114e-08 10.5996 15.0999)" fill="#EBEFF2" stroke="#EBEFF2" stroke-width="0.360001"/>
<rect width="0.900003" height="10.8" transform="matrix(-1 0 0 1 14.1997 7.8999)" fill="#EBEFF2" stroke="#EBEFF2" stroke-width="0.360001"/>
</svg>
