<svg width="248" height="236" viewBox="0 0 248 236" fill="none" xmlns="http://www.w3.org/2000/svg">
<g opacity="0.3" clip-path="url(#clip0_76_1518)">
<path d="M150.106 13.2407L20.9004 40.9517L59.2044 219.395L188.41 191.684L150.106 13.2407Z" fill="#C2CFE0"/>
<g opacity="0.5">
<path opacity="0.5" d="M148.569 16.7096L23.7334 43.5005L60.7198 215.917L185.555 189.126L148.569 16.7096Z" fill="url(#paint0_linear_76_1518)"/>
</g>
<path d="M147.254 18.336L25.5933 44.4287L61.7848 213.031L183.445 186.938L147.254 18.336Z" fill="#FAFAFA"/>
<path d="M115.191 17.5669L54.8369 30.5112L57.9738 45.1249L118.328 32.1806L115.191 17.5669Z" fill="url(#paint1_linear_76_1518)"/>
<path d="M81.9479 9.76576C77.2882 10.7662 74.34 15.442 75.3651 20.2085C76.3902 24.975 80.9954 28.0338 85.646 27.0333C90.2966 26.0329 93.2539 21.3571 92.2288 16.5906C91.2038 11.8241 86.6076 8.76531 81.9479 9.76576ZM84.8719 23.3972C83.8871 23.632 82.8547 23.5684 81.9062 23.2144C80.9577 22.8605 80.1361 22.2323 79.5462 21.4099C78.9562 20.5874 78.6246 19.6081 78.5935 18.5965C78.5625 17.585 78.8335 16.5872 79.3719 15.7302C79.9103 14.8732 80.6918 14.1958 81.6168 13.7844C82.5419 13.373 83.5684 13.2463 84.5658 13.4203C85.5631 13.5943 86.4861 14.0611 87.217 14.7614C87.9479 15.4617 88.4537 16.3636 88.6698 17.3522C88.8192 17.9985 88.8393 18.6679 88.7291 19.322C88.6189 19.976 88.3805 20.6019 88.0276 21.1636C87.6747 21.7253 87.2142 22.2118 86.6727 22.5951C86.1312 22.9784 85.5192 23.251 84.8719 23.3972Z" fill="url(#paint2_linear_76_1518)"/>
<path d="M114.421 17.0764L55.3379 29.748L58.3365 43.7175L117.419 31.0459L114.421 17.0764Z" fill="#109CF1"/>
<path d="M81.9481 9.76562C80.3149 10.116 78.8224 10.9426 77.6593 12.1408C76.4961 13.339 75.7145 14.8551 75.4133 16.4973C75.1122 18.1396 75.3049 19.8342 75.9672 21.3669C76.6296 22.8996 77.7317 24.2016 79.1343 25.1083C80.5369 26.0149 82.177 26.4854 83.8471 26.4604C85.5172 26.4353 87.1424 25.9158 88.5172 24.9675C89.8919 24.0193 90.9545 22.6848 91.5705 21.1329C92.1865 19.581 92.3283 17.8813 91.978 16.2489C91.7454 15.1649 91.3014 14.1373 90.6714 13.2248C90.0414 12.3123 89.2378 11.5327 88.3064 10.9307C87.3751 10.3287 86.3342 9.91591 85.2432 9.716C84.1522 9.51609 83.0325 9.53295 81.9481 9.76562ZM84.7421 22.7926C83.7994 22.9948 82.8179 22.913 81.9218 22.5576C81.0257 22.2022 80.2551 21.5892 79.7075 20.796C79.16 20.0028 78.86 19.0651 78.8456 18.1016C78.8312 17.138 79.103 16.1918 79.6266 15.3826C80.1502 14.5734 80.9021 13.9376 81.7872 13.5556C82.6724 13.1736 83.6509 13.0626 84.5992 13.2365C85.5475 13.4104 86.4228 13.8615 87.1146 14.5328C87.8064 15.204 88.2834 16.0653 88.4855 17.0075C88.7564 18.2709 88.5143 19.59 87.8123 20.6749C87.1102 21.7598 86.0059 22.5215 84.7421 22.7926Z" fill="#109CF1"/>
<path d="M210.127 35.3359H77.981V217.841H210.127V35.3359Z" fill="#C2CFE0"/>
<g opacity="0.5">
<path opacity="0.5" d="M207.895 38.4224H80.2153V214.758H207.895V38.4224Z" fill="url(#paint3_linear_76_1518)"/>
</g>
<path d="M206.269 39.7217H81.8394V212.161H206.269V39.7217Z" fill="white"/>
<path d="M175.081 32.2441H113.354V47.1904H175.081V32.2441Z" fill="url(#paint4_linear_76_1518)"/>
<path d="M144.217 17.6543C139.452 17.6543 135.587 21.6077 135.587 26.486C135.587 31.3644 139.452 35.3178 144.217 35.3178C148.983 35.3178 152.847 31.3644 152.847 26.486C152.847 21.6077 148.983 17.6543 144.217 17.6543ZM144.217 31.582C143.204 31.606 142.207 31.3277 141.353 30.7826C140.499 30.2374 139.826 29.4502 139.422 28.5214C139.017 27.5926 138.899 26.5644 139.082 25.5681C139.265 24.5717 139.741 23.6525 140.448 22.9276C141.156 22.2028 142.064 21.7053 143.056 21.4987C144.049 21.2921 145.08 21.3857 146.018 21.7676C146.957 22.1494 147.76 22.8023 148.326 23.6427C148.892 24.4832 149.194 25.4731 149.194 26.486C149.204 27.8174 148.686 29.0984 147.753 30.0489C146.821 30.9993 145.549 31.5419 144.217 31.5578V31.582Z" fill="url(#paint5_linear_76_1518)"/>
<path d="M174.431 31.6035H114.003V45.8909H174.431V31.6035Z" fill="#109CF1"/>
<path d="M144.217 17.6543C142.547 17.6543 140.914 18.1494 139.525 19.077C138.136 20.0046 137.054 21.323 136.414 22.8656C135.775 24.4081 135.608 26.1055 135.934 27.7431C136.26 29.3806 137.064 30.8848 138.245 32.0654C139.426 33.2461 140.931 34.0501 142.569 34.3758C144.208 34.7015 145.906 34.5343 147.449 33.8954C148.992 33.2565 150.311 32.1744 151.239 30.7862C152.167 29.3979 152.662 27.7658 152.662 26.0961C152.662 23.8572 151.773 21.71 150.189 20.1269C148.605 18.5437 146.457 17.6543 144.217 17.6543ZM144.217 30.9684C143.254 30.9672 142.312 30.6808 141.512 30.1452C140.711 29.6096 140.087 28.849 139.719 27.9593C139.351 27.0696 139.254 26.0908 139.442 25.1464C139.63 24.202 140.093 23.3343 140.774 22.6531C141.455 21.9718 142.322 21.5074 143.267 21.3185C144.211 21.1297 145.191 21.2248 146.081 21.5919C146.972 21.959 147.734 22.5816 148.27 23.3811C148.807 24.1806 149.095 25.1212 149.097 26.0841C149.097 26.7241 148.97 27.3579 148.725 27.9491C148.479 28.5402 148.12 29.0773 147.666 29.5295C147.213 29.9817 146.675 30.3401 146.083 30.5845C145.492 30.8288 144.857 30.9541 144.217 30.9533V30.9684Z" fill="#109CF1"/>
<g opacity="0.5">
<path opacity="0.5" d="M5.7534 222.773H4.61719V229.22H5.7534V222.773Z" fill="#47E6B1"/>
<path opacity="0.5" d="M8.41211 226.566V225.43H1.96236V226.566H8.41211Z" fill="#47E6B1"/>
</g>
<g opacity="0.5">
<path opacity="0.5" d="M137.658 0H136.521V6.447H137.658V0Z" fill="#47E6B1"/>
<path opacity="0.5" d="M140.316 3.78952V2.65332L133.867 2.65332V3.78952L140.316 3.78952Z" fill="#47E6B1"/>
</g>
<path opacity="0.5" d="M233.159 233.507C232.846 233.37 232.593 233.123 232.45 232.813C232.307 232.502 232.283 232.15 232.382 231.823C232.398 231.773 232.408 231.721 232.412 231.669C232.422 231.519 232.382 231.371 232.3 231.245C232.218 231.119 232.098 231.024 231.957 230.972C231.816 230.92 231.662 230.915 231.518 230.957C231.374 230.999 231.248 231.087 231.158 231.206C231.126 231.249 231.1 231.294 231.079 231.342C230.942 231.656 230.695 231.908 230.385 232.052C230.074 232.195 229.722 232.219 229.395 232.119C229.345 232.103 229.293 232.093 229.24 232.089C229.091 232.08 228.942 232.119 228.816 232.201C228.691 232.283 228.595 232.404 228.543 232.544C228.491 232.685 228.486 232.839 228.528 232.983C228.571 233.127 228.658 233.253 228.778 233.343C228.82 233.375 228.866 233.401 228.914 233.422C229.228 233.558 229.48 233.805 229.623 234.116C229.767 234.426 229.791 234.778 229.691 235.105C229.675 235.156 229.665 235.207 229.661 235.26C229.652 235.409 229.691 235.558 229.773 235.683C229.855 235.809 229.976 235.905 230.116 235.957C230.257 236.009 230.411 236.014 230.555 235.972C230.699 235.929 230.825 235.842 230.916 235.722C230.947 235.68 230.974 235.634 230.994 235.586C231.131 235.273 231.378 235.02 231.688 234.877C231.999 234.734 232.351 234.71 232.679 234.809C232.729 234.825 232.78 234.835 232.833 234.84C232.983 234.849 233.131 234.809 233.257 234.727C233.382 234.645 233.478 234.525 233.53 234.384C233.582 234.243 233.587 234.09 233.545 233.946C233.503 233.802 233.415 233.675 233.295 233.585C233.253 233.554 233.208 233.527 233.159 233.507Z" fill="#4D8AF0"/>
<path opacity="0.5" d="M41.3263 171.527C41.0127 171.391 40.7603 171.144 40.617 170.833C40.4737 170.523 40.4496 170.171 40.5492 169.844C40.5653 169.794 40.5755 169.742 40.5795 169.689C40.5885 169.54 40.5491 169.391 40.467 169.266C40.3849 169.14 40.2646 169.044 40.1239 168.992C39.9831 168.94 39.8293 168.935 39.6854 168.978C39.5415 169.02 39.4149 169.107 39.3246 169.227C39.2931 169.269 39.2668 169.315 39.246 169.363C39.1095 169.676 38.8624 169.929 38.5519 170.072C38.2413 170.215 37.8889 170.239 37.5617 170.14C37.5117 170.124 37.4599 170.114 37.4075 170.11C37.2577 170.101 37.1091 170.14 36.9835 170.222C36.8579 170.304 36.762 170.424 36.7101 170.565C36.6582 170.706 36.653 170.859 36.6953 171.003C36.7376 171.147 36.8251 171.274 36.9449 171.364C36.987 171.395 37.0326 171.422 37.0809 171.442C37.3945 171.579 37.647 171.826 37.7903 172.136C37.9336 172.447 37.9577 172.799 37.858 173.126C37.842 173.176 37.8318 173.228 37.8278 173.28C37.8188 173.43 37.8582 173.578 37.9403 173.704C38.0223 173.83 38.1427 173.925 38.2834 173.977C38.4242 174.029 38.5779 174.034 38.7219 173.992C38.8658 173.95 38.9923 173.862 39.0827 173.743C39.1141 173.7 39.1405 173.655 39.1613 173.607C39.2978 173.293 39.5449 173.041 39.8554 172.898C40.166 172.754 40.5184 172.73 40.8456 172.83C40.8956 172.846 40.9474 172.856 40.9998 172.86C41.1495 172.869 41.2982 172.83 41.4238 172.748C41.5494 172.666 41.6453 172.545 41.6972 172.405C41.7491 172.264 41.7542 172.11 41.712 171.966C41.6697 171.822 41.5822 171.696 41.4624 171.606C41.4203 171.574 41.3746 171.548 41.3263 171.527Z" fill="#FDD835"/>
<path opacity="0.5" d="M201.107 20.6077C200.794 20.4712 200.541 20.2243 200.398 19.9138C200.254 19.6034 200.23 19.2512 200.33 18.9241C200.346 18.8741 200.356 18.8224 200.36 18.77C200.369 18.6203 200.33 18.4717 200.248 18.3461C200.166 18.2206 200.045 18.1248 199.905 18.0729C199.764 18.021 199.61 18.0158 199.466 18.0581C199.322 18.1003 199.196 18.1878 199.105 18.3075C199.074 18.3496 199.048 18.3953 199.027 18.4435C198.89 18.757 198.643 19.0094 198.333 19.1526C198.022 19.2958 197.67 19.3199 197.342 19.2203C197.292 19.2042 197.241 19.1941 197.188 19.1901C197.038 19.1811 196.89 19.2205 196.764 19.3025C196.639 19.3845 196.543 19.5048 196.491 19.6455C196.439 19.7862 196.434 19.9399 196.476 20.0838C196.518 20.2277 196.606 20.3541 196.726 20.4444C196.768 20.4759 196.813 20.5022 196.862 20.523C197.175 20.6595 197.428 20.9064 197.571 21.2168C197.714 21.5273 197.738 21.8795 197.639 22.2066C197.623 22.2566 197.613 22.3083 197.609 22.3607C197.6 22.5104 197.639 22.659 197.721 22.7846C197.803 22.9101 197.923 23.0059 198.064 23.0578C198.205 23.1097 198.359 23.1149 198.503 23.0726C198.647 23.0303 198.773 22.9429 198.863 22.8231C198.895 22.781 198.921 22.7354 198.942 22.6871C199.079 22.3737 199.326 22.1213 199.636 21.9781C199.947 21.8349 200.299 21.8107 200.626 21.9104C200.676 21.9264 200.728 21.9366 200.781 21.9406C200.93 21.9496 201.079 21.9102 201.205 21.8282C201.33 21.7461 201.426 21.6259 201.478 21.4852C201.53 21.3445 201.535 21.1908 201.493 21.0469C201.45 20.903 201.363 20.7765 201.243 20.6862C201.201 20.6548 201.155 20.6284 201.107 20.6077Z" fill="#FDD835"/>
<path opacity="0.5" d="M245.726 97.3239C246.984 97.3239 248.003 96.3051 248.003 95.0484C248.003 93.7917 246.984 92.7729 245.726 92.7729C244.469 92.7729 243.449 93.7917 243.449 95.0484C243.449 96.3051 244.469 97.3239 245.726 97.3239Z" fill="#F55F44"/>
<path opacity="0.5" d="M69.7681 227.95C71.0256 227.95 72.0451 226.932 72.0451 225.675C72.0451 224.418 71.0256 223.399 69.7681 223.399C68.5106 223.399 67.4912 224.418 67.4912 225.675C67.4912 226.932 68.5106 227.95 69.7681 227.95Z" fill="#F55F44"/>
<path opacity="0.5" d="M222.343 146.518C223.601 146.518 224.62 145.499 224.62 144.242C224.62 142.986 223.601 141.967 222.343 141.967C221.086 141.967 220.066 142.986 220.066 144.242C220.066 145.499 221.086 146.518 222.343 146.518Z" fill="#F55F44"/>
<path opacity="0.5" d="M26.3497 31.3966C27.6072 31.3966 28.6266 30.3779 28.6266 29.1212C28.6266 27.8645 27.6072 26.8457 26.3497 26.8457C25.0922 26.8457 24.0728 27.8645 24.0728 29.1212C24.0728 30.3779 25.0922 31.3966 26.3497 31.3966Z" fill="#4D8AF0"/>
<path opacity="0.5" d="M2.27692 93.4821C3.53443 93.4821 4.55384 92.4633 4.55384 91.2066C4.55384 89.9499 3.53443 88.9312 2.27692 88.9312C1.01941 88.9312 0 89.9499 0 91.2066C0 92.4633 1.01941 93.4821 2.27692 93.4821Z" fill="#47E6B1"/>
</g>
<defs>
<linearGradient id="paint0_linear_76_1518" x1="123.136" y1="202.522" x2="86.1342" y2="30.1086" gradientUnits="userSpaceOnUse">
<stop stop-color="#808080" stop-opacity="0.25"/>
<stop offset="0.54" stop-color="#808080" stop-opacity="0.12"/>
<stop offset="1" stop-color="#808080" stop-opacity="0.1"/>
</linearGradient>
<linearGradient id="paint1_linear_76_1518" x1="33203.2" y1="-4321.84" x2="33048.2" y2="-5044.52" gradientUnits="userSpaceOnUse">
<stop stop-color="#808080" stop-opacity="0.25"/>
<stop offset="0.54" stop-color="#808080" stop-opacity="0.12"/>
<stop offset="1" stop-color="#808080" stop-opacity="0.1"/>
</linearGradient>
<linearGradient id="paint2_linear_76_1518" x1="9695.44" y1="492.96" x2="9479.21" y2="-515.231" gradientUnits="userSpaceOnUse">
<stop stop-color="#808080" stop-opacity="0.25"/>
<stop offset="0.54" stop-color="#808080" stop-opacity="0.12"/>
<stop offset="1" stop-color="#808080" stop-opacity="0.1"/>
</linearGradient>
<linearGradient id="paint3_linear_76_1518" x1="60907" y1="125330" x2="60907" y2="22454.2" gradientUnits="userSpaceOnUse">
<stop stop-color="#808080" stop-opacity="0.25"/>
<stop offset="0.54" stop-color="#808080" stop-opacity="0.12"/>
<stop offset="1" stop-color="#808080" stop-opacity="0.1"/>
</linearGradient>
<linearGradient id="paint4_linear_76_1518" x1="29553.8" y1="2365.81" x2="29553.8" y2="1626.71" gradientUnits="userSpaceOnUse">
<stop stop-color="#808080" stop-opacity="0.25"/>
<stop offset="0.54" stop-color="#808080" stop-opacity="0.12"/>
<stop offset="1" stop-color="#808080" stop-opacity="0.1"/>
</linearGradient>
<linearGradient id="paint5_linear_76_1518" x1="11645.5" y1="3133.32" x2="11645.5" y2="2101.06" gradientUnits="userSpaceOnUse">
<stop stop-color="#808080" stop-opacity="0.25"/>
<stop offset="0.54" stop-color="#808080" stop-opacity="0.12"/>
<stop offset="1" stop-color="#808080" stop-opacity="0.1"/>
</linearGradient>
<clipPath id="clip0_76_1518">
<rect width="248" height="236" fill="white"/>
</clipPath>
</defs>
</svg>
